<svg width="164" height="70" viewBox="0 0 164 70" fill="none" xmlns="http://www.w3.org/2000/svg">
<path fill-rule="evenodd" clip-rule="evenodd" d="M8 0.339844C3.58172 0.339844 0 3.92157 0 8.33984V50.2865C0 54.7048 3.58172 58.2865 8 58.2865H73.3429L80.3306 68.8767C81.1211 70.0747 82.8788 70.0747 83.6693 68.8766L90.657 58.2865H156C160.418 58.2865 164 54.7048 164 50.2865V8.33984C164 3.92157 160.418 0.339844 156 0.339844H8Z" fill="#5134A4"/>
<path d="M44.1 35V21H49.56C50.7867 21 51.8333 21.1933 52.7 21.58C53.5667 21.9667 54.2333 22.5267 54.7 23.26C55.1667 23.9933 55.4 24.8667 55.4 25.88C55.4 26.8933 55.1667 27.7667 54.7 28.5C54.2333 29.22 53.5667 29.7733 52.7 30.16C51.8333 30.5467 50.7867 30.74 49.56 30.74H45.2L46.1 29.82V35H44.1ZM53.46 35L49.9 29.92H52.04L55.64 35H53.46ZM46.1 30.02L45.2 29.04H49.5C50.78 29.04 51.7467 28.7667 52.4 28.22C53.0667 27.66 53.4 26.88 53.4 25.88C53.4 24.88 53.0667 24.1067 52.4 23.56C51.7467 23.0133 50.78 22.74 49.5 22.74H45.2L46.1 21.74V30.02ZM62.8913 35.12C61.8246 35.12 60.8779 34.8867 60.0513 34.42C59.2246 33.9533 58.5713 33.3133 58.0913 32.5C57.6113 31.6733 57.3713 30.74 57.3713 29.7C57.3713 28.6467 57.6113 27.7133 58.0913 26.9C58.5713 26.0867 59.2246 25.4533 60.0513 25C60.8779 24.5333 61.8246 24.3 62.8913 24.3C63.9446 24.3 64.8846 24.5333 65.7113 25C66.5513 25.4533 67.2046 26.0867 67.6713 26.9C68.1513 27.7 68.3913 28.6333 68.3913 29.7C68.3913 30.7533 68.1513 31.6867 67.6713 32.5C67.2046 33.3133 66.5513 33.9533 65.7113 34.42C64.8846 34.8867 63.9446 35.12 62.8913 35.12ZM62.8913 33.44C63.5713 33.44 64.1779 33.2867 64.7113 32.98C65.2579 32.6733 65.6846 32.24 65.9913 31.68C66.2979 31.1067 66.4513 30.4467 66.4513 29.7C66.4513 28.94 66.2979 28.2867 65.9913 27.74C65.6846 27.18 65.2579 26.7467 64.7113 26.44C64.1779 26.1333 63.5713 25.98 62.8913 25.98C62.2113 25.98 61.6046 26.1333 61.0713 26.44C60.5379 26.7467 60.1113 27.18 59.7913 27.74C59.4713 28.2867 59.3113 28.94 59.3113 29.7C59.3113 30.4467 59.4713 31.1067 59.7913 31.68C60.1113 32.24 60.5379 32.6733 61.0713 32.98C61.6046 33.2867 62.2113 33.44 62.8913 33.44ZM75.5066 35.12C74.5999 35.12 73.7999 34.9533 73.1066 34.62C72.4266 34.2867 71.8932 33.78 71.5066 33.1C71.1332 32.4067 70.9466 31.54 70.9466 30.5V24.4H72.8666V30.28C72.8666 31.32 73.1132 32.1 73.6066 32.62C74.1132 33.14 74.8199 33.4 75.7266 33.4C76.3932 33.4 76.9732 33.2667 77.4666 33C77.9599 32.72 78.3399 32.32 78.6066 31.8C78.8732 31.2667 79.0066 30.6267 79.0066 29.88V24.4H80.9266V35H79.1066V32.14L79.4066 32.9C79.0599 33.6067 78.5399 34.1533 77.8466 34.54C77.1532 34.9267 76.3732 35.12 75.5066 35.12ZM90.2417 24.3C91.1084 24.3 91.8684 24.4667 92.5217 24.8C93.1884 25.1333 93.7084 25.64 94.0817 26.32C94.4551 27 94.6417 27.86 94.6417 28.9V35H92.7217V29.12C92.7217 28.0933 92.4684 27.32 91.9617 26.8C91.4684 26.28 90.7684 26.02 89.8617 26.02C89.1817 26.02 88.5884 26.1533 88.0817 26.42C87.5751 26.6867 87.1817 27.08 86.9017 27.6C86.6351 28.12 86.5017 28.7667 86.5017 29.54V35H84.5817V24.4H86.4217V27.26L86.1217 26.5C86.4684 25.8067 87.0017 25.2667 87.7217 24.88C88.4417 24.4933 89.2817 24.3 90.2417 24.3ZM102.575 35.12C101.548 35.12 100.628 34.8933 99.815 34.44C99.015 33.9867 98.3817 33.3533 97.915 32.54C97.4483 31.7267 97.215 30.78 97.215 29.7C97.215 28.62 97.4483 27.68 97.915 26.88C98.3817 26.0667 99.015 25.4333 99.815 24.98C100.628 24.5267 101.548 24.3 102.575 24.3C103.468 24.3 104.275 24.5 104.995 24.9C105.715 25.3 106.288 25.9 106.715 26.7C107.155 27.5 107.375 28.5 107.375 29.7C107.375 30.9 107.162 31.9 106.735 32.7C106.322 33.5 105.755 34.1067 105.035 34.52C104.315 34.92 103.495 35.12 102.575 35.12ZM102.735 33.44C103.402 33.44 104.002 33.2867 104.535 32.98C105.082 32.6733 105.508 32.24 105.815 31.68C106.135 31.1067 106.295 30.4467 106.295 29.7C106.295 28.94 106.135 28.2867 105.815 27.74C105.508 27.18 105.082 26.7467 104.535 26.44C104.002 26.1333 103.402 25.98 102.735 25.98C102.055 25.98 101.448 26.1333 100.915 26.44C100.382 26.7467 99.955 27.18 99.635 27.74C99.315 28.2867 99.155 28.94 99.155 29.7C99.155 30.4467 99.315 31.1067 99.635 31.68C99.955 32.24 100.382 32.6733 100.915 32.98C101.448 33.2867 102.055 33.44 102.735 33.44ZM106.355 35V32.14L106.475 29.68L106.275 27.22V20.16H108.195V35H106.355ZM118.699 35V21.8L119.559 22.74H115.539V21H120.679V35H118.699Z" fill="white"/>
</svg>
