<svg width="150" height="53" viewBox="0 0 150 53" fill="none" xmlns="http://www.w3.org/2000/svg">
<rect x="0.5" y="0.5" width="149" height="52" rx="7.5" stroke="#707392"/>
<path d="M37.1 34V20H42.56C43.7867 20 44.8333 20.1933 45.7 20.58C46.5667 20.9667 47.2333 21.5267 47.7 22.26C48.1667 22.9933 48.4 23.8667 48.4 24.88C48.4 25.8933 48.1667 26.7667 47.7 27.5C47.2333 28.22 46.5667 28.7733 45.7 29.16C44.8333 29.5467 43.7867 29.74 42.56 29.74H38.2L39.1 28.82V34H37.1ZM46.46 34L42.9 28.92H45.04L48.64 34H46.46ZM39.1 29.02L38.2 28.04H42.5C43.78 28.04 44.7467 27.7667 45.4 27.22C46.0667 26.66 46.4 25.88 46.4 24.88C46.4 23.88 46.0667 23.1067 45.4 22.56C44.7467 22.0133 43.78 21.74 42.5 21.74H38.2L39.1 20.74V29.02ZM55.8913 34.12C54.8246 34.12 53.8779 33.8867 53.0513 33.42C52.2246 32.9533 51.5713 32.3133 51.0913 31.5C50.6113 30.6733 50.3713 29.74 50.3713 28.7C50.3713 27.6467 50.6113 26.7133 51.0913 25.9C51.5713 25.0867 52.2246 24.4533 53.0513 24C53.8779 23.5333 54.8246 23.3 55.8913 23.3C56.9446 23.3 57.8846 23.5333 58.7113 24C59.5513 24.4533 60.2046 25.0867 60.6713 25.9C61.1513 26.7 61.3913 27.6333 61.3913 28.7C61.3913 29.7533 61.1513 30.6867 60.6713 31.5C60.2046 32.3133 59.5513 32.9533 58.7113 33.42C57.8846 33.8867 56.9446 34.12 55.8913 34.12ZM55.8913 32.44C56.5713 32.44 57.1779 32.2867 57.7113 31.98C58.2579 31.6733 58.6846 31.24 58.9913 30.68C59.2979 30.1067 59.4513 29.4467 59.4513 28.7C59.4513 27.94 59.2979 27.2867 58.9913 26.74C58.6846 26.18 58.2579 25.7467 57.7113 25.44C57.1779 25.1333 56.5713 24.98 55.8913 24.98C55.2113 24.98 54.6046 25.1333 54.0713 25.44C53.5379 25.7467 53.1113 26.18 52.7913 26.74C52.4713 27.2867 52.3113 27.94 52.3113 28.7C52.3113 29.4467 52.4713 30.1067 52.7913 30.68C53.1113 31.24 53.5379 31.6733 54.0713 31.98C54.6046 32.2867 55.2113 32.44 55.8913 32.44ZM68.5066 34.12C67.5999 34.12 66.7999 33.9533 66.1066 33.62C65.4266 33.2867 64.8932 32.78 64.5066 32.1C64.1332 31.4067 63.9466 30.54 63.9466 29.5V23.4H65.8666V29.28C65.8666 30.32 66.1132 31.1 66.6066 31.62C67.1132 32.14 67.8199 32.4 68.7266 32.4C69.3932 32.4 69.9732 32.2667 70.4666 32C70.9599 31.72 71.3399 31.32 71.6066 30.8C71.8732 30.2667 72.0066 29.6267 72.0066 28.88V23.4H73.9266V34H72.1066V31.14L72.4066 31.9C72.0599 32.6067 71.5399 33.1533 70.8466 33.54C70.1532 33.9267 69.3732 34.12 68.5066 34.12ZM83.2417 23.3C84.1084 23.3 84.8684 23.4667 85.5217 23.8C86.1884 24.1333 86.7084 24.64 87.0817 25.32C87.4551 26 87.6417 26.86 87.6417 27.9V34H85.7217V28.12C85.7217 27.0933 85.4684 26.32 84.9617 25.8C84.4684 25.28 83.7684 25.02 82.8617 25.02C82.1817 25.02 81.5884 25.1533 81.0817 25.42C80.5751 25.6867 80.1817 26.08 79.9017 26.6C79.6351 27.12 79.5017 27.7667 79.5017 28.54V34H77.5817V23.4H79.4217V26.26L79.1217 25.5C79.4684 24.8067 80.0017 24.2667 80.7217 23.88C81.4417 23.4933 82.2817 23.3 83.2417 23.3ZM95.575 34.12C94.5483 34.12 93.6283 33.8933 92.815 33.44C92.015 32.9867 91.3817 32.3533 90.915 31.54C90.4483 30.7267 90.215 29.78 90.215 28.7C90.215 27.62 90.4483 26.68 90.915 25.88C91.3817 25.0667 92.015 24.4333 92.815 23.98C93.6283 23.5267 94.5483 23.3 95.575 23.3C96.4683 23.3 97.275 23.5 97.995 23.9C98.715 24.3 99.2883 24.9 99.715 25.7C100.155 26.5 100.375 27.5 100.375 28.7C100.375 29.9 100.162 30.9 99.735 31.7C99.3217 32.5 98.755 33.1067 98.035 33.52C97.315 33.92 96.495 34.12 95.575 34.12ZM95.735 32.44C96.4017 32.44 97.0017 32.2867 97.535 31.98C98.0817 31.6733 98.5083 31.24 98.815 30.68C99.135 30.1067 99.295 29.4467 99.295 28.7C99.295 27.94 99.135 27.2867 98.815 26.74C98.5083 26.18 98.0817 25.7467 97.535 25.44C97.0017 25.1333 96.4017 24.98 95.735 24.98C95.055 24.98 94.4483 25.1333 93.915 25.44C93.3817 25.7467 92.955 26.18 92.635 26.74C92.315 27.2867 92.155 27.94 92.155 28.7C92.155 29.4467 92.315 30.1067 92.635 30.68C92.955 31.24 93.3817 31.6733 93.915 31.98C94.4483 32.2867 95.055 32.44 95.735 32.44ZM99.355 34V31.14L99.475 28.68L99.275 26.22V19.16H101.195V34H99.355ZM111.699 34V20.8L112.559 21.74H108.539V20H113.679V34H111.699Z" fill="#707392"/>
</svg>
