<svg width="24" height="24" viewBox="0 0 24 24" fill="none" xmlns="http://www.w3.org/2000/svg">
<path d="M9.003 5.99993C9.003 5.20508 9.31875 4.44278 9.8808 3.88073C10.4428 3.31868 11.2051 3.00293 12 3.00293C12.7949 3.00293 13.5572 3.31868 14.1192 3.88073C14.6812 4.44278 14.997 5.20508 14.997 5.99993C14.997 6.79478 14.6812 7.55708 14.1192 8.11913C13.5572 8.68118 12.7949 8.99693 12 8.99693C11.2051 8.99693 10.4428 8.68118 9.8808 8.11913C9.31875 7.55708 9.003 6.79478 9.003 5.99993ZM12 4.50293C11.8034 4.50293 11.6087 4.54165 11.4271 4.61688C11.2455 4.69211 11.0805 4.80238 10.9415 4.94139C10.8025 5.0804 10.6922 5.24543 10.617 5.42705C10.5417 5.60868 10.503 5.80334 10.503 5.99993C10.503 6.19652 10.5417 6.39118 10.617 6.57281C10.6922 6.75443 10.8025 6.91946 10.9415 7.05847C11.0805 7.19748 11.2455 7.30775 11.4271 7.38298C11.6087 7.45821 11.8034 7.49693 12 7.49693C12.397 7.49693 12.7778 7.33921 13.0585 7.05847C13.3393 6.77773 13.497 6.39696 13.497 5.99993C13.497 5.6029 13.3393 5.22213 13.0585 4.94139C12.7778 4.66065 12.397 4.50293 12 4.50293ZM16.5 6.74993C16.5 6.45446 16.5582 6.16187 16.6713 5.88889C16.7843 5.61591 16.9501 5.36787 17.159 5.15894C17.3679 4.95001 17.616 4.78427 17.889 4.6712C18.1619 4.55813 18.4545 4.49993 18.75 4.49993C19.0455 4.49993 19.3381 4.55813 19.611 4.6712C19.884 4.78427 20.1321 4.95001 20.341 5.15894C20.5499 5.36787 20.7157 5.61591 20.8287 5.88889C20.9418 6.16187 21 6.45446 21 6.74993C21 7.34667 20.7629 7.91896 20.341 8.34092C19.919 8.76288 19.3467 8.99993 18.75 8.99993C18.1533 8.99993 17.581 8.76288 17.159 8.34092C16.7371 7.91896 16.5 7.34667 16.5 6.74993ZM18.75 5.99993C18.5511 5.99993 18.3603 6.07895 18.2197 6.2196C18.079 6.36025 18 6.55102 18 6.74993C18 6.94884 18.079 7.13961 18.2197 7.28026C18.3603 7.42091 18.5511 7.49993 18.75 7.49993C18.9489 7.49993 19.1397 7.42091 19.2803 7.28026C19.421 7.13961 19.5 6.94884 19.5 6.74993C19.5 6.55102 19.421 6.36025 19.2803 6.2196C19.1397 6.07895 18.9489 5.99993 18.75 5.99993ZM5.25 4.49993C4.65326 4.49993 4.08097 4.73698 3.65901 5.15894C3.23705 5.5809 3 6.15319 3 6.74993C3 7.34667 3.23705 7.91896 3.65901 8.34092C4.08097 8.76288 4.65326 8.99993 5.25 8.99993C5.84674 8.99993 6.41903 8.76288 6.84099 8.34092C7.26295 7.91896 7.5 7.34667 7.5 6.74993C7.5 6.15319 7.26295 5.5809 6.84099 5.15894C6.41903 4.73698 5.84674 4.49993 5.25 4.49993ZM4.5 6.74993C4.5 6.55102 4.57902 6.36025 4.71967 6.2196C4.86032 6.07895 5.05109 5.99993 5.25 5.99993C5.44891 5.99993 5.63968 6.07895 5.78033 6.2196C5.92098 6.36025 6 6.55102 6 6.74993C6 6.94884 5.92098 7.13961 5.78033 7.28026C5.63968 7.42091 5.44891 7.49993 5.25 7.49993C5.05109 7.49993 4.86032 7.42091 4.71967 7.28026C4.57902 7.13961 4.5 6.94884 4.5 6.74993ZM6.402 10.4999C6.13867 10.956 6.00002 11.4733 6 11.9999H3V15.7499C2.99988 16.123 3.09254 16.4903 3.26965 16.8187C3.44676 17.1471 3.70275 17.4263 4.01458 17.6312C4.32641 17.836 4.6843 17.9601 5.05601 17.9923C5.42773 18.0245 5.80161 17.9637 6.144 17.8154C6.255 18.3119 6.429 18.7859 6.654 19.2284C6.0847 19.4583 5.46766 19.5449 4.85708 19.4805C4.24651 19.4162 3.66106 19.2029 3.15216 18.8595C2.64326 18.516 2.22648 18.0529 1.93841 17.5107C1.65034 16.9685 1.4998 16.3639 1.5 15.7499V11.9999C1.5 11.6021 1.65804 11.2206 1.93934 10.9393C2.22064 10.658 2.60218 10.4999 3 10.4999H6.402ZM17.346 19.2284C17.9153 19.4583 18.5323 19.5449 19.1429 19.4805C19.7535 19.4162 20.3389 19.2029 20.8478 18.8595C21.3567 18.516 21.7735 18.0529 22.0616 17.5107C22.3497 16.9685 22.5002 16.3639 22.5 15.7499V11.9999C22.5 11.6021 22.342 11.2206 22.0607 10.9393C21.7794 10.658 21.3978 10.4999 21 10.4999H17.598C17.853 10.9409 18 11.4524 18 11.9999H21V15.7499C21.0001 16.123 20.9075 16.4903 20.7304 16.8187C20.5532 17.1471 20.2973 17.4263 19.9854 17.6312C19.6736 17.836 19.3157 17.9601 18.944 17.9923C18.5723 18.0245 18.1984 17.9637 17.856 17.8154C17.742 18.3134 17.572 18.7844 17.346 19.2284ZM9 10.4984C8.60218 10.4984 8.22064 10.6565 7.93934 10.9378C7.65804 11.2191 7.5 11.6006 7.5 11.9984V16.4999C7.5 17.6934 7.97411 18.838 8.81802 19.6819C9.66193 20.5258 10.8065 20.9999 12 20.9999C13.1935 20.9999 14.3381 20.5258 15.182 19.6819C16.0259 18.838 16.5 17.6934 16.5 16.4999V11.9999C16.5 11.6021 16.342 11.2206 16.0607 10.9393C15.7794 10.658 15.3978 10.4999 15 10.4999L9 10.4984ZM9 11.9984H15V16.4999C15 17.2956 14.6839 18.0586 14.1213 18.6213C13.5587 19.1839 12.7956 19.4999 12 19.4999C11.2044 19.4999 10.4413 19.1839 9.87868 18.6213C9.31607 18.0586 9 17.2956 9 16.4999V11.9984Z" fill="#F3F3F3"/>
</svg>
