<svg width="20" height="20" viewBox="0 0 20 20" fill="none" xmlns="http://www.w3.org/2000/svg">
<path d="M6.73095 0.548422C4.70913 1.24981 2.96552 2.58106 1.75622 4.34665C0.54692 6.11223 -0.0643232 8.21908 0.012272 10.3577C0.0888671 12.4964 0.849263 14.5541 2.18177 16.2287C3.51428 17.9032 5.34866 19.1063 7.41547 19.6613C9.09108 20.0936 10.8466 20.1126 12.5312 19.7166C14.0573 19.3738 15.4681 18.6406 16.6257 17.5887C17.8304 16.4605 18.7049 15.0253 19.1551 13.4373C19.6444 11.7105 19.7315 9.89448 19.4096 8.12874H10.0002V12.0319H15.4495C15.3406 12.6545 15.1072 13.2486 14.7633 13.7789C14.4194 14.3091 13.9721 14.7645 13.4481 15.1178C12.7827 15.558 12.0326 15.8541 11.2459 15.9873C10.457 16.134 9.64776 16.134 8.85881 15.9873C8.05919 15.822 7.30275 15.4919 6.63768 15.0182C5.56924 14.2619 4.76698 13.1874 4.3454 11.9482C3.91669 10.6857 3.91669 9.31694 4.3454 8.05444C4.64549 7.16949 5.14158 6.36375 5.79665 5.69735C6.54629 4.92074 7.49536 4.36561 8.53972 4.09288C9.58409 3.82014 10.6834 3.84034 11.717 4.15125C12.5245 4.39912 13.2629 4.83219 13.8734 5.41595C14.4878 4.80468 15.1012 4.19182 15.7135 3.57739C16.0297 3.24698 16.3743 2.93239 16.6858 2.59408C15.7539 1.72693 14.6601 1.05218 13.4671 0.608495C11.2945 -0.180381 8.91727 -0.201581 6.73095 0.548422Z" fill="white"/>
<path d="M6.7307 0.548213C8.91684 -0.202299 11.2941 -0.181657 13.4668 0.606706C14.6601 1.05341 15.7534 1.7314 16.6839 2.60178C16.3678 2.94009 16.0342 3.25626 15.7117 3.58509C15.0983 4.19741 14.4854 4.80763 13.8731 5.41574C13.2627 4.83198 12.5243 4.39891 11.7168 4.15104C10.6835 3.83904 9.58422 3.81768 8.53958 4.08929C7.49493 4.36091 6.54528 4.91502 5.79482 5.69082C5.13976 6.35722 4.64366 7.16296 4.34357 8.04791L1.06641 5.5106C2.23943 3.18443 4.27045 1.40509 6.7307 0.548213Z" fill="#E33629"/>
<path d="M0.196025 8.02434C0.372168 7.15137 0.664604 6.30597 1.06551 5.51074L4.34267 8.05438C3.91396 9.31688 3.91396 10.6856 4.34267 11.9481C3.25081 12.7912 2.15842 13.6386 1.06551 14.4901C0.061888 12.4924 -0.244199 10.2162 0.196025 8.02434Z" fill="#F8BD00"/>
<path d="M9.99875 8.12695H19.4082C19.73 9.89269 19.6429 11.7087 19.1536 13.4356C18.7035 15.0235 17.829 16.4587 16.6242 17.5869C15.5666 16.7617 14.5043 15.9428 13.4467 15.1176C13.971 14.7639 14.4185 14.308 14.7624 13.7772C15.1063 13.2464 15.3395 12.6517 15.448 12.0286H9.99875C9.99717 10.7291 9.99875 9.42802 9.99875 8.12695Z" fill="#587DBD"/>
<path d="M1.0625 14.4903C2.15542 13.6472 3.2478 12.7998 4.33967 11.9482C4.76209 13.188 5.56549 14.2625 6.6351 15.0183C7.30225 15.4898 8.06032 15.8172 8.86098 15.9795C9.64993 16.1262 10.4592 16.1262 11.2481 15.9795C12.0348 15.8463 12.7849 15.5502 13.4503 15.11C14.5079 15.9352 15.5702 16.7541 16.6279 17.5793C15.4705 18.6318 14.0596 19.3655 12.5334 19.7088C10.8488 20.1048 9.09325 20.0858 7.41764 19.6535C6.09239 19.2996 4.85452 18.6758 3.78162 17.8212C2.64601 16.9196 1.71849 15.7834 1.0625 14.4903Z" fill="#319F43"/>
</svg>
